<svg xmlns="http://www.w3.org/2000/svg" viewBox="0 0 167.2 167.48"><defs><style>.cls-1{fill:#55ba5d;}</style></defs><title>Asset 1</title><g id="Layer_2" data-name="Layer 2"><g id="Layer_1-2" data-name="Layer 1"><path class="cls-1" d="M83.6,167.48A83.74,83.74,0,0,0,83.6,0h0a83.74,83.74,0,0,0,0,167.48Zm37.59-44.15a5.21,5.21,0,0,1-7.17,1.73c-19.63-12-44.34-14.73-73.44-8.07a5.22,5.22,0,0,1-2.32-10.18c31.85-7.29,59.16-4.15,81.2,9.34A5.23,5.23,0,0,1,121.19,123.33Zm10.23-22.8h0a6.51,6.51,0,0,1-9,2.16C100,88.84,65.73,84.83,39.15,92.92a6.53,6.53,0,0,1-3.79-12.5c30.36-9.23,68.11-4.76,93.91,11.13A6.53,6.53,0,0,1,131.42,100.53ZM30.64,52.11c29.53-9,78.62-7.25,109.64,11.2a7.83,7.83,0,0,1-8,13.47h0c-27-16-71.4-17.5-97.12-9.68a7.83,7.83,0,0,1-4.54-15Z"/></g></g></svg>