<svg xmlns="http://www.w3.org/2000/svg" viewBox="0 0 387.72 320.34"><defs><style>.cls-1{font-size:254.69px;fill:#2bb673;font-family:CenturyGothic-BoldItalic, Century Gothic;font-weight:700;font-style:italic;}.cls-2{fill:#55ba5d;}</style></defs><title>Asset 4</title><g id="Layer_2" data-name="Layer 2"><g id="Layer_1-2" data-name="Layer 1"><text class="cls-1" transform="translate(0 218.78)">Y</text><path class="cls-2" d="M205.85,215.76a83.74,83.74,0,0,0,0-167.48h0a83.74,83.74,0,0,0,0,167.48Zm37.59-44.16a5.21,5.21,0,0,1-7.17,1.73c-19.63-12-44.33-14.73-73.43-8.07a5.22,5.22,0,0,1-2.32-10.18c31.84-7.28,59.16-4.15,81.19,9.34A5.22,5.22,0,0,1,243.44,171.6Zm10.23-22.8h0a6.51,6.51,0,0,1-9,2.15c-22.47-13.83-56.73-17.84-83.31-9.76a6.52,6.52,0,0,1-3.78-12.49c30.36-9.23,68.1-4.76,93.91,11.13A6.53,6.53,0,0,1,253.67,148.8ZM152.89,100.38c29.53-9,78.62-7.24,109.64,11.21a7.83,7.83,0,0,1-8,13.47h0c-26.94-16-71.4-17.51-97.12-9.69a7.83,7.83,0,0,1-4.54-15Z"/><path class="cls-2" d="M57.73,257.6l0,0c-14.44-3.44-17-5.86-17-10.95,0-4.8,4.51-8,11.23-8,6.51,0,13,2.46,19.72,7.51a.91.91,0,0,0,.71.18.94.94,0,0,0,.63-.39L80,235.94a1,1,0,0,0-.18-1.29A42.62,42.62,0,0,0,52.14,225c-15.58,0-26.48,9.37-26.48,22.77,0,14.38,9.4,19.47,25.63,23.4,13.81,3.19,16.14,5.86,16.14,10.63,0,5.29-4.71,8.58-12.3,8.58-8.42,0-15.3-2.85-23-9.51a1,1,0,0,0-.69-.23.9.9,0,0,0-.64.33l-7.91,9.42a1,1,0,0,0,.09,1.32A47,47,0,0,0,54.81,304c16.79,0,27.65-9.19,27.65-23.42C82.49,268.53,75.31,261.88,57.73,257.6Z"/><path class="cls-2" d="M120.46,243.32h0c-7.28,0-13.25,2.88-18.18,8.76v-6.62a.94.94,0,0,0-.94-1H88.41a.94.94,0,0,0-.94,1v73.6a1,1,0,0,0,.94.95h12.92a1,1,0,0,0,.94-.95V295.83a23.23,23.23,0,0,0,18.18,8.24c13.53,0,27.22-10.43,27.22-30.37S134,243.32,120.46,243.32Zm12.18,30.38c0,10.15-6.24,17.24-15.18,17.24S102,283.53,102,273.7s6.67-17.24,15.51-17.24,15.18,7.25,15.18,17.24Z"/><path class="cls-2" d="M182.76,243.33h0c-17.42,0-31.06,13.44-31.06,30.6,0,17,13.55,30.26,30.85,30.26,17.48,0,31.17-13.39,31.17-30.48S200.12,243.33,182.76,243.33Zm0,47.71c-9.26,0-16.25-7.46-16.25-17.35s6.75-17.13,16-17.13,16.36,7.46,16.36,17.35S192.12,291,182.76,291Z"/><path class="cls-2" d="M250.93,244.51H236.69V229.94a1,1,0,0,0-.94-.95H222.82a1,1,0,0,0-.94.95v14.57h-6.21a.94.94,0,0,0-.94,1v11.12a.94.94,0,0,0,.94.95h6.21v28.8c0,11.63,5.78,17.53,17.19,17.53a23.54,23.54,0,0,0,12.1-3,.92.92,0,0,0,.47-.82v-10.6a.93.93,0,0,0-.44-.8.92.92,0,0,0-.92,0,16.31,16.31,0,0,1-7.59,1.83c-4.14,0-6-1.89-6-6.11V257.54h14.23a.94.94,0,0,0,.93-1V245.46A.91.91,0,0,0,250.93,244.51Z"/><path class="cls-2" d="M367.67,244.57H354.21a.94.94,0,0,0-.9.63l-13.78,39.44-15.1-39.46a.94.94,0,0,0-.88-.61H301.47v-1.78c0-5.27,2-7.61,6.53-7.61a21.86,21.86,0,0,1,7.29,1.34.92.92,0,0,0,.85-.13.94.94,0,0,0,.38-.77V224.7a.92.92,0,0,0-.66-.91,35.47,35.47,0,0,0-10.75-1.55c-11.93,0-18.24,6.74-18.24,19.47v2.74h-6.21a1,1,0,0,0-1,1v11.18a1,1,0,0,0,1,.95h6.21v44.41a1,1,0,0,0,.94.95h12.92a.94.94,0,0,0,.95-.95v-44.4h12.07l18.49,44.4c-2.1,4.66-4.17,5.59-7,5.59a14.83,14.83,0,0,1-7.13-2,1,1,0,0,0-.75-.07.94.94,0,0,0-.56.51l-4.38,9.63a1,1,0,0,0,.41,1.23,27.18,27.18,0,0,0,13.8,3.54c9.54,0,14.82-4.46,19.46-16.44l22.43-58a.92.92,0,0,0-.1-.88A.91.91,0,0,0,367.67,244.57Z"/><path class="cls-2" d="M271.74,244.51H258.81a1,1,0,0,0-.95,1v56.48a1,1,0,0,0,.95.95h12.93a1,1,0,0,0,.95-.95V245.46A1,1,0,0,0,271.74,244.51Z"/><path class="cls-2" d="M265.35,218.79a9.29,9.29,0,1,0,9.27,9.28A9.27,9.27,0,0,0,265.35,218.79Z"/><path class="cls-2" d="M378.63,244.4a9.14,9.14,0,1,0,9.09,9.1A9.15,9.15,0,0,0,378.63,244.4Zm-.05,17.36a8.23,8.23,0,1,1,8.18-8.26A8.07,8.07,0,0,1,378.58,261.76Z"/><path class="cls-2" d="M380.65,254.44a2.84,2.84,0,0,0,2.21-2.9c0-1.92-1.46-3-3.68-3h-4.26v9.56h1.82v-3.31h2l2.31,3.31h2.18l-2.58-3.61Z"/></g></g></svg>